<?xml version="1.0" encoding="utf-8"?>
<!-- Generator: Adobe Illustrator 27.2.0, SVG Export Plug-In . SVG Version: 6.00 Build 0)  -->
<svg version="1.1" id="Layer_1" xmlns="http://www.w3.org/2000/svg" xmlns:xlink="http://www.w3.org/1999/xlink" x="0px" y="0px"
	 viewBox="0 0 980 980" style="enable-background:new 0 0 980 980;" xml:space="preserve">
<style type="text/css">
	.st0{fill:#FFFFFF;}
</style>
<path class="st0" d="M490,980c-66.1,0-130.3-13-190.7-38.5c-58.4-24.7-110.8-60-155.7-105c-45-45-80.3-97.4-105-155.7
	C13,620.3,0,556.1,0,490c0-66.1,13-130.3,38.5-190.7c24.7-58.4,60-110.8,105-155.7s97.4-80.3,155.7-105C359.7,13,423.9,0,490,0
	c66.1,0,130.3,13,190.7,38.5c58.4,24.7,110.8,60,155.7,105c45,45,80.3,97.4,105,155.7C967,359.7,980,423.9,980,490
	c0,66.1-13,130.3-38.5,190.7c-24.7,58.4-60,110.8-105,155.7c-45,45-97.4,80.3-155.7,105C620.3,967,556.1,980,490,980z M490,100
	c-104.2,0-202.1,40.6-275.8,114.2C140.6,287.9,100,385.8,100,490s40.6,202.1,114.2,275.8C287.9,839.4,385.8,880,490,880
	s202.1-40.6,275.8-114.2S880,594.2,880,490s-40.6-202.1-114.2-275.8C692.1,140.6,594.2,100,490,100z"/>
<path class="st0" d="M219,428h131c34.5-75.3,123.5-108.4,198.9-73.9S657.2,477.7,622.7,553c-34.5,75.3-123.5,108.4-198.9,73.9
	c-32.7-15-58.9-41.2-73.9-73.9H219c34.5,147.9,182.4,239.8,330.3,205.3C697.2,723.8,789.1,575.9,754.6,428
	c-34.5-147.9-182.4-239.8-330.3-205.3C322.4,246.5,242.8,326.1,219,428z"/>
</svg>
